<svg width="13" height="8" viewBox="0 0 13 8" fill="none" xmlns="http://www.w3.org/2000/svg">
<path d="M12.4083 0.366487L12.4033 0.360622L12.398 0.355153C12.1949 0.148669 11.8707 0.148275 11.6672 0.35397L5.19706 6.73484L2.01481 3.58836C1.81129 3.3826 1.48707 3.38297 1.28398 3.58947C1.08236 3.79449 1.08236 4.11919 1.28398 4.3242L1.28397 4.32422L1.28596 4.32619L4.51937 7.52325C4.70194 7.70828 4.95035 7.79999 5.17913 7.79999C5.42831 7.79999 5.65809 7.70651 5.83881 7.52333L12.3568 1.09528C12.5812 0.891644 12.5801 0.570373 12.4083 0.366487ZM5.25025 6.78746L5.24978 6.78696C5.24994 6.78712 5.2501 6.78731 5.25025 6.78746Z" fill="#3056D3" stroke="#3056D3" stroke-width="0.4"/>
</svg>
