<svg width="24" height="24" viewBox="0 0 24 24" fill="none" xmlns="http://www.w3.org/2000/svg">
<path d="M6.9362 4.33487C9.20564 4.33487 11.4709 5.85663 11.9531 7.62738C12.3088 5.94138 14.6278 4.35175 16.9636 4.35175C18.7808 4.35175 20.6077 5.31325 21.5292 7.93937C23.7945 14.3965 12.7425 20.5968 11.9527 21.364C11.163 20.3984 0.111698 14.5075 2.37833 7.94312C3.28512 5.317 5.11207 4.3345 6.9362 4.33487ZM6.9362 3.625H6.93549C4.54058 3.625 2.65423 5.10887 1.7608 7.69562C-0.273514 13.5869 7.11299 18.7502 10.2664 20.9541C10.7743 21.3092 11.3496 21.7116 11.4628 21.8369L11.9035 22.375L12.3942 21.8905C12.4757 21.814 12.8528 21.5564 13.2177 21.3074C16.2417 19.2419 24.2742 13.7545 22.1454 7.68812C21.2435 5.11637 19.3547 3.6415 16.964 3.6415C14.9452 3.6415 12.9481 4.67762 11.9338 6.09925C10.8857 4.65625 8.91392 3.62538 6.9362 3.625Z" fill="black"/>
</svg>
